<svg xmlns="http://www.w3.org/2000/svg" width="1120" height="640" viewBox="0 0 1120 640">
  <defs>
    <marker id="arrow" markerWidth="10" markerHeight="10" refX="8" refY="3" orient="auto" markerUnits="strokeWidth">
      <path d="M0,0 L0,6 L9,3 z" fill="#1f2937"/>
    </marker>
    <style>
      .box { fill: #ffffff; stroke: #1f2937; stroke-width: 2; }
      .input { fill: #eef6ff; stroke: #2563eb; stroke-width: 2; }
      .core { fill: #f0fdf4; stroke: #16a34a; stroke-width: 2; }
      .out { fill: #fff7ed; stroke: #ea580c; stroke-width: 2; }
      .arrow { stroke: #1f2937; stroke-width: 2; fill: none; marker-end: url(#arrow); }
      .dashed { stroke-dasharray: 8 6; }
      .text { font-family: Liberation Sans, Arial, sans-serif; font-size: 18px; fill: #111827; text-anchor: middle; dominant-baseline: middle; }
      .small { font-size: 14px; }
      .title { font-size: 24px; font-weight: bold; }
    </style>
  </defs>

  <text x="560" y="34" class="text title">CFG construction in RustyJudge</text>

  <rect x="55" y="115" width="190" height="80" rx="8" class="input"/>
  <text x="150" y="145" class="text">SyntaxNode</text>
  <text x="150" y="170" class="text small">parser output</text>

  <rect x="325" y="115" width="205" height="80" rx="8" class="core"/>
  <text x="427" y="145" class="text">AstLowerer</text>
  <text x="427" y="170" class="text small">walks the syntax tree</text>

  <rect x="640" y="70" width="205" height="80" rx="8" class="box"/>
  <text x="742" y="100" class="text">Resolver</text>
  <text x="742" y="125" class="text small">symbols and scopes</text>

  <rect x="640" y="205" width="205" height="80" rx="8" class="box"/>
  <text x="742" y="235" class="text">CfgBuilder</text>
  <text x="742" y="260" class="text small">blocks and edges</text>

  <rect x="900" y="160" width="180" height="90" rx="8" class="out"/>
  <text x="990" y="192" class="text">BodyAnalysis</text>
  <text x="990" y="217" class="text small">CFG + liveness</text>

  <rect x="325" y="405" width="205" height="85" rx="8" class="core"/>
  <text x="427" y="435" class="text">Function body</text>
  <text x="427" y="460" class="text small">separate builder</text>

  <rect x="640" y="405" width="205" height="85" rx="8" class="out"/>
  <text x="742" y="435" class="text">FunctionAnalysis</text>
  <text x="742" y="460" class="text small">single function CFG</text>

  <rect x="900" y="390" width="180" height="115" rx="8" class="out"/>
  <text x="990" y="423" class="text">SemanticModel</text>
  <text x="990" y="448" class="text small">script</text>
  <text x="990" y="470" class="text small">functions</text>
  <text x="990" y="492" class="text small">symbols</text>

  <path d="M245 155 L325 155" class="arrow"/>
  <path d="M530 138 C575 125 600 115 640 110" class="arrow"/>
  <path d="M530 172 C575 195 600 225 640 245" class="arrow"/>
  <path d="M742 150 L742 205" class="arrow dashed"/>
  <path d="M845 245 C880 235 885 218 900 205" class="arrow"/>
  <path d="M990 250 L990 390" class="arrow"/>

  <path d="M427 195 L427 405" class="arrow dashed"/>
  <path d="M530 448 L640 448" class="arrow"/>
  <path d="M845 448 L900 448" class="arrow"/>
</svg>
