<svg xmlns="http://www.w3.org/2000/svg" width="980" height="250" viewBox="0 0 980 250" role="img" aria-label="Tok izracunavanja zivosti u RustyJudge-u">
  <defs>
    <marker id="arrow" markerWidth="10" markerHeight="10" refX="8" refY="5" orient="auto" markerUnits="strokeWidth">
      <path d="M 0 0 L 10 5 L 0 10 z" fill="#2f3a4a"/>
    </marker>
    <style>
      .box { fill: #f7f8fb; stroke: #2f3a4a; stroke-width: 2; rx: 8; }
      .accent { fill: #edf7f4; stroke: #247a69; stroke-width: 2; rx: 8; }
      .title { font-family: Arial, sans-serif; font-size: 18px; font-weight: 700; fill: #18202c; }
      .text { font-family: Arial, sans-serif; font-size: 14px; fill: #313a48; }
      .small { font-family: Arial, sans-serif; font-size: 13px; fill: #485365; }
      .arrow { stroke: #2f3a4a; stroke-width: 2; fill: none; marker-end: url(#arrow); }
    </style>
  </defs>

  <rect x="30" y="60" width="135" height="90" class="box"/>
  <text x="97.5" y="92" text-anchor="middle" class="title">CFG</text>
  <text x="97.5" y="119" text-anchor="middle" class="text">блокови,</text>
  <text x="97.5" y="139" text-anchor="middle" class="text">искази, прелази</text>

  <path d="M 170 105 L 215 105" class="arrow"/>

  <rect x="225" y="60" width="155" height="90" class="box"/>
  <text x="302.5" y="88" text-anchor="middle" class="title">Достижност</text>
  <text x="302.5" y="116" text-anchor="middle" class="text">скуп блокова</text>
  <text x="302.5" y="136" text-anchor="middle" class="text">од `entry` блока</text>

  <path d="M 385 105 L 430 105" class="arrow"/>

  <rect x="440" y="60" width="160" height="90" class="box"/>
  <text x="520" y="88" text-anchor="middle" class="title">use / def</text>
  <text x="520" y="116" text-anchor="middle" class="text">локални скупови</text>
  <text x="520" y="136" text-anchor="middle" class="text">за сваки блок</text>

  <path d="M 605 105 L 650 105" class="arrow"/>

  <rect x="660" y="60" width="160" height="90" class="accent"/>
  <text x="740" y="88" text-anchor="middle" class="title">live-in/out</text>
  <text x="740" y="116" text-anchor="middle" class="text">итерације до</text>
  <text x="740" y="136" text-anchor="middle" class="text">стабилног стања</text>

  <path d="M 825 105 L 870 105" class="arrow"/>

  <rect x="880" y="60" width="70" height="90" class="box"/>
  <text x="915" y="94" text-anchor="middle" class="title">правила</text>
  <text x="915" y="122" text-anchor="middle" class="small">дијаг.</text>

  <path d="M 740 155 L 740 195 L 510 195 L 510 160" class="arrow"/>
  <text x="625" y="220" text-anchor="middle" class="small">живост исказа се рачуна после блоковских скупова</text>
</svg>
