<svg xmlns="http://www.w3.org/2000/svg" width="1100" height="560" viewBox="0 0 1100 560">
  <defs>
    <marker id="arrow" markerWidth="10" markerHeight="10" refX="8" refY="3" orient="auto" markerUnits="strokeWidth">
      <path d="M0,0 L0,6 L9,3 z" fill="#1f2937"/>
    </marker>
    <style>
      .box { fill: #ffffff; stroke: #1f2937; stroke-width: 2; }
      .input { fill: #eef6ff; stroke: #2563eb; stroke-width: 2; }
      .core { fill: #f0fdf4; stroke: #16a34a; stroke-width: 2; }
      .warn { fill: #fff7ed; stroke: #ea580c; stroke-width: 2; }
      .arrow { stroke: #1f2937; stroke-width: 2; fill: none; marker-end: url(#arrow); }
      .dashed { stroke-dasharray: 8 6; }
      .text { font-family: Liberation Sans, Arial, sans-serif; font-size: 18px; fill: #111827; text-anchor: middle; dominant-baseline: middle; }
      .small { font-size: 14px; }
      .title { font-size: 24px; font-weight: bold; }
    </style>
  </defs>

  <text x="550" y="32" class="text title">RustyJudge linting pipeline</text>

  <rect x="45" y="105" width="170" height="70" rx="8" class="input"/>
  <text x="130" y="130" class="text">Source</text>
  <text x="130" y="153" class="text small">file or document text</text>

  <rect x="270" y="105" width="170" height="70" rx="8" class="box"/>
  <text x="355" y="130" class="text">Parser</text>
  <text x="355" y="153" class="text small">parse_source</text>

  <rect x="495" y="105" width="190" height="70" rx="8" class="core"/>
  <text x="590" y="130" class="text">Semantic model</text>
  <text x="590" y="153" class="text small">symbols, CFGs, liveness</text>

  <rect x="740" y="105" width="170" height="70" rx="8" class="box"/>
  <text x="825" y="130" class="text">RuleContext</text>
  <text x="825" y="153" class="text small">source + syntax + model</text>

  <rect x="45" y="295" width="190" height="80" rx="8" class="core"/>
  <text x="140" y="322" class="text">Linter</text>
  <text x="140" y="347" class="text small">runs default rules</text>

  <rect x="305" y="295" width="210" height="80" rx="8" class="box"/>
  <text x="410" y="318" class="text">Rules</text>
  <text x="410" y="342" class="text small">text, syntax, semantic</text>
  <text x="410" y="362" class="text small">CFG and liveness checks</text>

  <rect x="585" y="295" width="190" height="80" rx="8" class="warn"/>
  <text x="680" y="322" class="text">Diagnostics</text>
  <text x="680" y="347" class="text small">row, column, message</text>

  <rect x="850" y="255" width="190" height="70" rx="8" class="input"/>
  <text x="945" y="282" class="text">CLI output</text>
  <text x="945" y="305" class="text small">JSON file reports</text>

  <rect x="850" y="365" width="190" height="70" rx="8" class="input"/>
  <text x="945" y="392" class="text">LSP output</text>
  <text x="945" y="415" class="text small">VS Code warnings</text>

  <path d="M215 140 L270 140" class="arrow"/>
  <path d="M440 140 L495 140" class="arrow"/>
  <path d="M685 140 L740 140" class="arrow"/>
  <path d="M825 175 C825 225 195 225 140 295" class="arrow"/>
  <path d="M235 335 L305 335" class="arrow"/>
  <path d="M515 335 L585 335" class="arrow"/>
  <path d="M775 325 C820 310 825 295 850 290" class="arrow"/>
  <path d="M775 350 C820 365 825 390 850 400" class="arrow"/>

  <path d="M495 185 C520 235 650 235 740 175" class="arrow dashed"/>
  <text x="630" y="226" class="text small">optional; rules can still run without it</text>
</svg>
