<svg xmlns="http://www.w3.org/2000/svg" width="1160" height="500" viewBox="0 0 1160 500" role="img" aria-label="RustyJudge linting pipeline">
  <defs>
    <marker id="arrow" markerWidth="10" markerHeight="10" refX="8" refY="5" orient="auto" markerUnits="strokeWidth">
      <path d="M 0 0 L 10 5 L 0 10 z" fill="#1f2937"/>
    </marker>
    <style>
      .box { fill: #ffffff; stroke: #1f2937; stroke-width: 2; }
      .input { fill: #eef6ff; stroke: #2563eb; stroke-width: 2; }
      .core { fill: #f0fdf4; stroke: #16a34a; stroke-width: 2; }
      .warn { fill: #fff7ed; stroke: #ea580c; stroke-width: 2; }
      .arrow { stroke: #1f2937; stroke-width: 2.2; fill: none; marker-end: url(#arrow); }
      .thin { stroke-width: 1.8; }
      .text { font-family: Arial, sans-serif; font-size: 18px; fill: #111827; text-anchor: middle; dominant-baseline: middle; }
      .small { font-family: Arial, sans-serif; font-size: 14px; fill: #374151; text-anchor: middle; dominant-baseline: middle; }
      .title { font-family: Arial, sans-serif; font-size: 24px; font-weight: bold; fill: #111827; text-anchor: middle; dominant-baseline: middle; }
    </style>
  </defs>

  <text x="580" y="34" class="title">RustyJudge linting pipeline</text>

  <rect x="45" y="88" width="160" height="76" rx="8" class="input"/>
  <text x="125" y="116" class="text">Source</text>
  <text x="125" y="142" class="small">file or document</text>

  <rect x="270" y="88" width="160" height="76" rx="8" class="box"/>
  <text x="350" y="116" class="text">Parser</text>
  <text x="350" y="142" class="small">parse_source</text>

  <rect x="500" y="88" width="190" height="76" rx="8" class="core"/>
  <text x="595" y="113" class="text">SemanticModel</text>
  <text x="595" y="139" class="small">symbols, CFG, liveness</text>

  <rect x="760" y="88" width="190" height="76" rx="8" class="box"/>
  <text x="855" y="113" class="text">RuleContext</text>
  <text x="855" y="139" class="small">source + model</text>

  <rect x="270" y="285" width="160" height="76" rx="8" class="core"/>
  <text x="350" y="313" class="text">Linter</text>
  <text x="350" y="339" class="small">runs rules</text>

  <rect x="500" y="285" width="190" height="76" rx="8" class="box"/>
  <text x="595" y="309" class="text">Rules</text>
  <text x="595" y="334" class="small">text, AST, CFG</text>

  <rect x="760" y="285" width="190" height="76" rx="8" class="warn"/>
  <text x="855" y="313" class="text">Diagnostics</text>
  <text x="855" y="339" class="small">row, column, message</text>

  <rect x="1000" y="238" width="125" height="64" rx="8" class="input"/>
  <text x="1062.5" y="263" class="text">CLI</text>
  <text x="1062.5" y="285" class="small">JSON</text>

  <rect x="1000" y="344" width="125" height="64" rx="8" class="input"/>
  <text x="1062.5" y="369" class="text">LSP</text>
  <text x="1062.5" y="391" class="small">warnings</text>

  <path d="M205 126 L270 126" class="arrow"/>
  <path d="M430 126 L500 126" class="arrow"/>
  <path d="M690 126 L760 126" class="arrow"/>

  <path d="M855 164 L855 218 L350 218 L350 285" class="arrow"/>
  <path d="M430 323 L500 323" class="arrow"/>
  <path d="M690 323 L760 323" class="arrow"/>

  <path d="M950 323 L972 323 L972 270 L1000 270" class="arrow thin"/>
  <path d="M950 323 L972 323 L972 376 L1000 376" class="arrow thin"/>

  <text x="595" y="201" class="small">if the model fails, simple rules can still run</text>
</svg>
